<svg width="20" height="21" viewBox="0 0 20 21" fill="none" xmlns="http://www.w3.org/2000/svg">
<path d="M3 5.43975C3 5.03091 3.16389 4.6388 3.45561 4.34971C3.74733 4.0606 4.143 3.89819 4.55556 3.89819H7.10667C7.26984 3.89831 7.42884 3.94929 7.56117 4.04391C7.69349 4.13852 7.79244 4.27199 7.844 4.42541L9.00911 7.88852C9.06814 8.06452 9.06116 8.25571 8.98944 8.42702C8.91773 8.59833 8.78608 8.73827 8.61867 8.82116L6.86322 9.69214C7.72369 11.5794 9.24902 13.091 11.1534 13.9438L12.0323 12.2041C12.116 12.0382 12.2572 11.9077 12.4301 11.8366C12.6029 11.7656 12.7959 11.7587 12.9734 11.8172L16.468 12.9718C16.6229 13.023 16.7577 13.1211 16.8532 13.2524C16.9487 13.3837 17 13.5414 17 13.7033V16.2306C17 16.6395 16.8361 17.0316 16.5444 17.3207C16.2527 17.6098 15.857 17.7722 15.4444 17.7722H14.6667C8.22356 17.7722 3 12.5956 3 6.21053V5.43975Z" stroke="#F3A800" stroke-width="1.2" stroke-linecap="round" stroke-linejoin="round"/>
</svg>
